<?xml version="1.0" encoding="UTF-8" standalone="no"?>
<!-- Created with Inkscape (http://www.inkscape.org/) -->

<svg
   xmlns:dc="http://purl.org/dc/elements/1.1/"
   xmlns:cc="http://creativecommons.org/ns#"
   xmlns:rdf="http://www.w3.org/1999/02/22-rdf-syntax-ns#"
   xmlns:svg="http://www.w3.org/2000/svg"
   xmlns="http://www.w3.org/2000/svg"
   version="1.1"
   width="63.64571"
   height="63.71077"
   id="svg2">
  <defs
     id="defs4" />
  <metadata
     id="metadata7">
    <rdf:RDF>
      <cc:Work
         rdf:about="">
        <dc:format>image/svg+xml</dc:format>
        <dc:type
           rdf:resource="http://purl.org/dc/dcmitype/StillImage" />
        <dc:title></dc:title>
      </cc:Work>
    </rdf:RDF>
  </metadata>
  <g
     transform="translate(0,-988.65154)"
     id="layer1">
    <path
       d="m 200.57142,294.08603 0,-31.99043 31.99044,0 31.99044,0 0,31.99043 0,31.99044 -31.99044,0 -31.99044,0 0,-31.99044 z"
       id="path3022"
       style="fill:#fefefe" />
    <path
       d="m 28.82303,1052.3092 c -1.79957,-0.226 -5.6944,-1.1837 -7.74769,-1.9051 C 12.03026,1047.2264 4.62415,1039.6361 1.6258,1030.4707 0.31855,1026.4747 0,1024.5159 0,1020.4737 c 0,-4.0423 0.31855,-6.001 1.6258,-9.997 3.0747,-9.3988 10.80055,-17.12466 20.19932,-20.19936 3.996,-1.30724 5.95477,-1.6258 9.99701,-1.6258 4.04224,0 6.00101,0.31856 9.99701,1.6258 9.39877,3.0747 17.12462,10.80056 20.19932,20.19936 1.30626,3.9929 1.62574,5.9556 1.62725,9.997 10e-4,4.1896 -0.47254,6.836 -1.97009,10.9967 -4.31464,11.9875 -16.12306,20.4883 -28.97875,20.8616 -1.64951,0.048 -3.39274,0.038 -3.87384,-0.023 z m 2.20561,-12.5288 c 0.12308,-0.2406 0.47184,-1.4567 0.77501,-2.7025 l 0.55122,-2.2652 3.66996,0.016 c 3.35563,0.014 3.77115,-0.034 4.85158,-0.5661 2.64225,-1.3014 4.44169,-4.4306 4.44169,-7.7241 0,-1.9224 -0.55785,-3.1483 -1.99079,-4.3748 -0.55457,-0.4747 -1.00832,-0.9295 -1.00832,-1.0106 0,-0.081 0.43988,-0.3947 0.9775,-0.6968 1.79929,-1.0113 2.77138,-2.9609 2.77138,-5.5583 0,-2.8045 -1.43216,-4.6415 -4.93602,-6.3314 -0.99658,-0.4806 -1.81196,-1.0262 -1.81196,-1.2124 0,-0.1862 0.23574,-1.3625 0.52387,-2.6139 0.28813,-1.2514 0.46884,-2.4187 0.40157,-2.594 -0.1173,-0.3057 -2.22592,-0.9167 -3.16345,-0.9167 -0.34813,0 -0.54534,0.383 -0.86854,1.687 -0.97792,3.9455 -0.80988,3.6324 -1.84577,3.4388 -1.52724,-0.2853 -1.55493,-0.3812 -0.87903,-3.043 0.33544,-1.321 0.55737,-2.5387 0.49319,-2.706 -0.0642,-0.1672 -0.8294,-0.4856 -1.70048,-0.70754 -1.96776,-0.5013 -1.98407,-0.48493 -2.72909,2.73914 -0.63808,2.7613 -0.33536,2.653 -4.46881,1.5988 -1.87677,-0.4786 -2.9643,-0.6482 -3.15298,-0.4916 -0.35192,0.292 -0.96888,3.0753 -0.78685,3.5497 0.0722,0.188 0.74591,0.4794 1.49722,0.6476 0.84969,0.1901 1.58867,0.5427 1.95506,0.9327 l 0.58903,0.627 -1.96045,7.9226 c -1.07824,4.3574 -2.12665,8.1889 -2.32978,8.5144 -0.38562,0.618 -0.742,0.6353 -3.00748,0.1457 -0.81386,-0.1759 -0.814,-0.1757 -1.7091,1.7616 -0.74147,1.6048 -0.83773,1.9909 -0.56065,2.249 0.18398,0.1713 1.57649,0.6141 3.09448,0.984 1.51799,0.3699 2.92107,0.7721 3.11796,0.8938 0.30466,0.1883 0.26209,0.6115 -0.28582,2.8416 -0.35409,1.4412 -0.57627,2.7295 -0.49374,2.863 0.0825,0.1334 0.82431,0.4186 1.64841,0.6338 1.17767,0.3075 1.56226,0.326 1.79697,0.087 0.16424,-0.1676 0.56764,-1.3731 0.89642,-2.679 l 0.5978,-2.3743 0.93431,0.03 c 1.49273,0.048 1.57076,0.2882 0.94449,2.906 -0.74431,3.1111 -0.74344,3.1169 0.51701,3.4409 0.5842,0.1502 1.17465,0.3143 1.31211,0.3648 0.59921,0.22 1.12333,0.099 1.33087,-0.3062 z m -1.33087,-10.7347 c -0.96222,-0.2053 -1.87615,-0.4769 -2.03097,-0.6037 -0.20443,-0.1674 -0.0402,-1.1941 0.59991,-3.7505 l 0.8814,-3.5199 0.95493,0.1527 c 1.83507,0.2934 4.89673,1.4013 5.91898,2.1418 1.15488,0.8366 1.79878,1.8866 1.79738,2.9309 -0.001,1.0224 -0.88296,2.3013 -1.87095,2.7141 -1.09252,0.4565 -3.94432,0.4267 -6.25068,-0.065 z m 2.17927,-11.4333 c -0.72582,-0.1758 -1.39515,-0.3951 -1.4874,-0.4873 -0.0922,-0.092 0.17106,-1.5415 0.58511,-3.2206 l 0.75283,-3.053 1.10946,0.039 c 1.64416,0.057 3.96629,1.0213 5.04578,2.0947 0.79949,0.795 0.93722,1.0934 0.93722,2.0304 0,2.0545 -1.22498,2.9717 -3.92391,2.9379 -0.93468,-0.012 -2.29326,-0.165 -3.01909,-0.3408 z"
       id="path3004"
       style="fill:#f59118;fill-opacity:1" />
  </g>
</svg>
